<?xml version="1.0" encoding="UTF-8"?>
<!DOCTYPE svg PUBLIC "-//W3C//DTD SVG 1.1//EN" "http://www.w3.org/Graphics/SVG/1.1/DTD/svg11.dtd">
<!-- Creator: CorelDRAW 2019 (64-Bit Versión de evaluación) -->
<svg xmlns="http://www.w3.org/2000/svg" xml:space="preserve" width="100%" height="100%" version="1.1" style="shape-rendering:geometricPrecision; text-rendering:geometricPrecision; image-rendering:optimizeQuality; fill-rule:evenodd; clip-rule:evenodd"
viewBox="0 0 5004.96 6474.85"
 xmlns:xlink="http://www.w3.org/1999/xlink"
 xmlns:xodm="http://www.corel.com/coreldraw/odm/2003">
 <defs>
  <style type="text/css">
   <![CDATA[
    .fil0 {fill:#0551AA}
    .fil1 {fill:#1679DF}
    .fil2 {fill:#32C2E9}
   ]]>
  </style>
 </defs>
 <g id="Capa_x0020_1">
  <metadata id="CorelCorpID_0Corel-Layer"/>
  <path class="fil0" d="M3414.18 1647.49l-327.98 427.99c2227.83,809.95 1606.1,3855.91 -578.99,3866.84 -1015.15,5.08 -1829.15,-761.58 -1964.41,-1660.45 -164.14,-1090.75 580.54,-2009.84 1383.48,-2202.82 -38.01,-76.86 -184.65,-242.21 -249.56,-323.49 -90.13,-112.88 -43.65,-147.57 -363.93,12.97 -280.69,140.68 -479.45,323.63 -659.26,506.31 -352.19,357.8 -647.14,960.06 -653.42,1669.38 -11.7,1323.35 974.89,2322.5 2140.63,2500.77 1411.49,215.86 2494.48,-774.42 2779.56,-1821.49 370.84,-1362.09 -539.73,-2720.21 -1506.12,-2976.01z"/>
  <path class="fil1" d="M2427.92 536.2c459.65,-101.03 596.44,587.78 164.46,697.69 -473.58,120.5 -631.19,-595.11 -164.46,-697.69zm22.79 -534.77c-546.05,30.4 -1025.8,573.15 -801.76,1185.03 81.09,221.45 296,465.78 414.87,631.49 59.28,82.65 372.14,601.84 475.93,532.49 111.57,-74.55 787.48,-1051.22 838.44,-1257.62 150.46,-609.41 -351.97,-1123.42 -927.48,-1091.39z"/>
  <path class="fil2" d="M3639.83 2849.21c-103.76,37.95 -1126.73,1112.06 -1329.67,1281.85 -204.35,170.98 -256.34,18.39 -389.81,-102.68 -69.27,-62.83 -278.23,-276.2 -337.89,-312.13 -188.01,-113.19 -365.49,76.45 -309.85,269.02 34.12,118.1 506.42,568.63 616.58,696.26 66.73,77.32 204.64,290.89 392.35,204.97 59.31,-27.15 574.72,-585.79 643.34,-669.72 145.94,-178.5 848.04,-903.38 927.56,-1019.99 122.09,-179.02 -36.91,-411.84 -212.61,-347.58z"/>
 </g>
</svg>
