<?xml version="1.0" encoding="UTF-8"?>
<!DOCTYPE svg PUBLIC "-//W3C//DTD SVG 1.1//EN" "http://www.w3.org/Graphics/SVG/1.1/DTD/svg11.dtd">
<!-- Creator: CorelDRAW 2019 (64-Bit Versión de evaluación) -->
<svg xmlns="http://www.w3.org/2000/svg" xml:space="preserve" width="100%" height="100%" version="1.1" style="shape-rendering:geometricPrecision; text-rendering:geometricPrecision; image-rendering:optimizeQuality; fill-rule:evenodd; clip-rule:evenodd"
viewBox="0 0 11497.7 6474.85"
 xmlns:xlink="http://www.w3.org/1999/xlink"
 xmlns:xodm="http://www.corel.com/coreldraw/odm/2003">
 <defs>
  <style type="text/css">
   <![CDATA[
    .fil0 {fill:#0551AA}
    .fil1 {fill:#1679DF}
    .fil3 {fill:#1B2934}
    .fil2 {fill:#32C2E9}
   ]]>
  </style>
 </defs>
 <g id="Capa_x0020_1">
  <metadata id="CorelCorpID_0Corel-Layer"/>
  <path class="fil0" d="M3414.18 1647.49l-327.98 427.99c2227.83,809.95 1606.1,3855.91 -578.99,3866.84 -1015.15,5.08 -1829.15,-761.58 -1964.41,-1660.45 -164.14,-1090.75 580.54,-2009.84 1383.48,-2202.82 -38.01,-76.86 -184.65,-242.21 -249.56,-323.49 -90.13,-112.88 -43.65,-147.57 -363.93,12.97 -280.69,140.68 -479.45,323.63 -659.26,506.31 -352.19,357.8 -647.14,960.06 -653.42,1669.38 -11.7,1323.35 974.89,2322.5 2140.63,2500.77 1411.49,215.86 2494.48,-774.42 2779.56,-1821.49 370.84,-1362.09 -539.73,-2720.21 -1506.12,-2976.01z"/>
  <path class="fil1" d="M2427.92 536.2c459.65,-101.03 596.44,587.78 164.46,697.69 -473.58,120.5 -631.19,-595.11 -164.46,-697.69zm22.79 -534.77c-546.05,30.4 -1025.8,573.15 -801.76,1185.03 81.09,221.45 296,465.78 414.87,631.49 59.28,82.65 372.14,601.84 475.93,532.49 111.57,-74.55 787.48,-1051.22 838.44,-1257.62 150.46,-609.41 -351.97,-1123.42 -927.48,-1091.39z"/>
  <path class="fil2" d="M3639.83 2849.21c-103.76,37.95 -1126.73,1112.06 -1329.67,1281.85 -204.35,170.98 -256.34,18.39 -389.81,-102.68 -69.27,-62.83 -278.23,-276.2 -337.89,-312.13 -188.01,-113.19 -365.49,76.45 -309.85,269.02 34.12,118.1 506.42,568.63 616.58,696.26 66.73,77.32 204.64,290.89 392.35,204.97 59.31,-27.15 574.72,-585.79 643.34,-669.72 145.94,-178.5 848.04,-903.38 927.56,-1019.99 122.09,-179.02 -36.91,-411.84 -212.61,-347.58z"/>
  <path class="fil3" d="M8645.06 2269.63c512.55,-127.69 565.85,783.86 169.76,888.33 -511.95,135.02 -591.14,-783.36 -169.76,-888.33zm-41.33 -321.57c-926.28,146.48 -796.94,1673 243.18,1534.12 931.86,-124.43 783.13,-1696.42 -243.18,-1534.12z"/>
  <path class="fil3" d="M6960.07 3001.84l-372.18 2.18c44.82,676.99 1300.3,648.34 1252.9,-38.91 -25.31,-366.82 -355.98,-352.73 -683.51,-444.25 -192.62,-53.82 -237.17,-240.96 -62.75,-288.22 246.79,-66.86 298.85,43.69 388.41,167.61l338.74 2.43c-95.96,-706.76 -1332.4,-578.05 -1178.58,129.65 75.93,349.3 432.42,276.34 727.77,385.79 422.76,156.66 -327.88,512.96 -410.8,83.72z"/>
  <path class="fil1" d="M10273.54 5625.15l339.73 -4.27c36.2,-281.69 -78.54,-473.78 157.75,-578.85l335.63 584.41 391.05 0.55 -497.36 -820.42 460.42 -494.72c-365.15,12.81 -325.8,-81.04 -525.07,134.1 -80.93,87.37 -233.94,283.39 -322.81,345.46l-2.9 -1011.5 -345.03 -2.03 8.59 1847.27z"/>
  <path class="fil1" d="M8517.05 5020.72c10.53,158.83 -6.1,268.17 -106.38,328.23 -337.53,202.15 -503.93,-168.04 -259.34,-271.56 80.26,-33.98 267.81,-46.01 365.72,-56.67zm-757.53 -294.55l318.93 -0.7c66.75,-101.45 57.28,-191.9 264.71,-175.98 167.62,12.88 171.34,109.2 175.55,268.9 -209.92,118.86 -860.21,-99.24 -801.2,503.29 43.33,442.4 700.01,380.3 794.65,152.71l29.58 138.6 323.32 2.79c-62.05,-400.49 86.43,-1020.97 -200,-1239.16 -298.26,-227.2 -889.96,-60.52 -905.54,349.55z"/>
  <polygon class="fil1" points="5628.65,3806.12 5628.43,4124.41 6159.33,4116.74 6155.61,5626.7 6498.38,5620.12 6512.93,4115.89 7026.94,4110.14 7034.6,3795.41 "/>
  <path class="fil1" d="M10157.48 5176.67l-318.98 1.46c-65.14,100.54 -105.82,292.46 -351.22,175.84 -122.28,-58.1 -178.65,-213.8 -177.85,-389.87 0.79,-175.19 54.65,-333.34 180.76,-387.69 272.35,-117.37 295.55,146.66 361.55,178.37l314.61 -5.11c-27.13,-611.2 -1198.95,-699.16 -1189.93,227.8 8.94,918.53 1160.45,845.15 1181.06,199.2z"/>
  <polygon class="fil3" points="5969.51,3443.93 6379.99,3441.49 6386.61,1438.15 5976.77,1439.45 "/>
  <path class="fil1" d="M7257.44 4571.55l-0.9 -241.71 -320.55 1.12 -8.12 1282.79 334.22 1.71c-15.37,-525.22 -141.35,-986.79 419.93,-981.85l1.59 -341.85c-360.94,39.15 -267.76,101.27 -426.17,279.79z"/>
 </g>
</svg>
